<svg width="62" height="62" viewBox="0 0 62 62" fill="none" xmlns="http://www.w3.org/2000/svg">
<path d="M15.5 0C13.3687 0 11.625 1.74375 11.625 3.875V58.125C11.625 60.2562 13.3687 62 15.5 62H54.25C56.3812 62 58.125 60.2562 58.125 58.125V15.5L42.625 0H15.5Z" fill="#E2E5E7"/>
<path d="M46.5 15.5H58.125L42.625 0V11.625C42.625 13.7563 44.3687 15.5 46.5 15.5Z" fill="#B0B7BD"/>
<path d="M58.125 27.125L46.5 15.5H58.125V27.125Z" fill="#CAD1D8"/>
<path d="M50.375 50.375C50.375 51.4406 49.5031 52.3125 48.4375 52.3125H5.8125C4.74687 52.3125 3.875 51.4406 3.875 50.375V31C3.875 29.9344 4.74687 29.0625 5.8125 29.0625H48.4375C49.5031 29.0625 50.375 29.9344 50.375 31V50.375Z" fill="#576D7E"/>
<path d="M15.8971 39.498L18.5941 36.121C19.3982 35.0689 20.9637 36.4155 20.0821 37.423C19.1541 38.5235 18.1776 39.717 17.2456 40.9376L20.4076 44.8726C21.2582 46.0351 19.5551 47.1511 18.7181 46.0041L15.8681 42.3481L13.0645 46.0816C12.274 47.2112 10.5225 45.9421 11.4079 44.8881L14.5215 40.9376C13.545 39.715 12.5995 38.5235 11.6559 37.423C10.6794 36.2605 12.4929 35.0689 13.204 36.1539L15.8971 39.498Z" fill="white"/>
<g transform="matrix(1 0 0 1 27.26 41.13)" id="y7JuBQvuBtdyvVsZu4759"  >
<path transform="translate(-39.26, -41.13)" d="M35.6362 36.7099C35.6362 36.1984 36.0702 35.7644 36.6127 35.7644C37.1087 35.7644 37.5272 36.2003 37.5272 36.7099L37.5272 44.4715L41.7413 44.4715C43.2583 44.4715 43.2913 46.5001 41.7413 46.5001L36.6147 46.5001C36.0722 46.5001 35.6382 46.1145 35.6382 45.5546L35.6382 36.7099L35.6362 36.7099Z" fill="white"/>
</g>
<path d="M33.48 38.1027C33.8365 35.0977 38.3742 34.5571 40.5132 36.2001C41.5672 37.0507 40.4512 38.3992 39.5212 37.7172C38.3742 36.9887 35.7721 36.6477 35.4466 38.2577C35.0281 40.7997 41.7667 39.3447 41.6582 43.4638C41.5497 47.3989 35.8496 47.4919 33.7106 45.7249C33.1991 45.3083 33.2146 44.6282 33.4936 44.2078C33.8966 43.8067 34.3442 43.6672 34.8731 44.0993C36.1422 44.9673 39.4127 45.6183 39.6452 43.4154C39.4437 41.1252 32.9995 42.5047 33.48 38.1027Z" fill="white"/>
<path d="M48.4375 52.3125H11.625V54.25H48.4375C49.5031 54.25 50.375 53.3781 50.375 52.3125V50.375C50.375 51.4406 49.5031 52.3125 48.4375 52.3125Z" fill="#CAD1D8"/>
</svg>

